<?xml version="1.0" encoding="UTF-8" standalone="no" ?>
<!DOCTYPE svg PUBLIC "-//W3C//DTD SVG 1.1//EN" "http://www.w3.org/Graphics/SVG/1.1/DTD/svg11.dtd">
<svg xmlns="http://www.w3.org/2000/svg" xmlns:xlink="http://www.w3.org/1999/xlink" version="1.1" width="976" height="1080" viewBox="0 0 976 1080" xml:space="preserve">
<desc>Created with Fabric.js 5.2.4</desc>
<defs>
</defs>
<g transform="matrix(1 0 0 1 488 540)" id="73a5471e-8b6f-4348-8a4e-2155cd934660"  >
<rect style="stroke: none; stroke-width: 1; stroke-dasharray: none; stroke-linecap: butt; stroke-dashoffset: 0; stroke-linejoin: miter; stroke-miterlimit: 4; fill: rgb(255,255,255); fill-rule: nonzero; opacity: 1; visibility: hidden;" vector-effect="non-scaling-stroke"  x="-488" y="-540" rx="0" ry="0" width="976" height="1080" />
</g>
<g transform="matrix(Infinity NaN NaN Infinity 0 0)" id="84a84181-c70c-4470-9b4e-7fd52e6cb631"  >
</g>
<g transform="matrix(1.17 0 0 1.17 488 540)"  >
<g style="" vector-effect="non-scaling-stroke"   >
		<g transform="matrix(1 0 0 1 -227.87 -12.55)"  >
<path style="stroke: none; stroke-width: 1; stroke-dasharray: none; stroke-linecap: butt; stroke-dashoffset: 0; stroke-linejoin: miter; stroke-miterlimit: 4; fill: rgb(0,0,0); fill-rule: nonzero; opacity: 1;" vector-effect="non-scaling-stroke"  transform=" translate(-277.05, -482.05)" d="M 358.393127 510.592529 C 348.772614 458.172119 300.13205 428.908356 266.595062 426.444458 C 266.468994 428.301575 268.114014 428.335236 269.140259 428.866547 C 291.023224 440.195129 305.799835 457.303375 309.564362 482.008484 C 315.656158 521.986084 292.539795 561.700806 247.39888 564.214661 C 208.837784 566.362122 183.826477 538.894348 178.610611 508.494049 C 172.381973 472.190826 195.180862 429.350037 231.31897 411.269714 C 270.834259 391.499756 315.364502 398.059662 348.007385 424.48822 C 363.915375 437.367798 371.825958 455.014679 375.227356 474.770538 C 379.559326 499.931061 372.436432 522.837952 360.682068 544.718384 C 360.214264 545.589233 359.763947 546.544128 357.805115 546.263184 C 361.914856 534.577576 360.240967 522.79071 358.393127 510.592529 M 253.93428 538.579346 C 255.628647 541.180725 257.075928 544.434998 260.992065 541.449463 C 259.970001 533.801208 252.645065 528.378601 243.102951 528.017456 C 233.402161 527.650208 225.456451 532.569153 223.821136 539.954041 C 227.39061 541.769836 227.390594 541.769836 229.986496 539.133118 C 237.036682 531.971985 245.616318 531.566223 253.93428 538.579346 M 246.873779 518.544128 C 250.032516 515.510498 250.583679 512.292542 247.359375 508.988342 C 244.452209 506.009125 240.992493 505.23053 237.450562 507.616455 C 234.789536 509.408936 232.226196 511.808044 234.044708 515.473816 C 236.046692 519.50946 239.44722 521.223389 243.995438 519.932556 C 244.785019 519.708496 245.52681 519.31604 246.873779 518.544128 M 284.333069 526.070435 C 277.060638 516.366028 259.089233 518.028015 256.591187 527.459595 C 259.96582 527.846252 259.96582 527.846252 263.103912 526.247131 C 269.50885 522.983276 275.378693 523.977417 280.176392 529.348999 C 281.781647 531.146301 283.253235 532.399048 285.736542 530.768616 C 286.401672 529.158264 285.300171 527.962219 284.333069 526.070435 M 242.066055 489.377289 C 241.236115 489.929993 240.319641 490.388672 239.594788 491.055603 C 238.216232 492.324036 235.496628 493.513062 237.070404 495.685822 C 238.825867 498.109528 240.812729 496.083282 242.545486 494.746674 C 247.912384 490.606659 254.586411 490.320648 260.606567 494.139557 C 262.906158 495.598328 264.691162 496.248993 266.100525 493.327393 C 265.285217 491.334473 263.765167 490.260223 262.191742 489.375061 C 255.788864 485.772919 249.269302 485.730377 242.066055 489.377289 M 208.266464 514.215027 C 213.394318 512.954163 217.824966 514.013672 221.332718 518.142273 C 222.918518 520.008728 224.693344 520.581238 226.860504 519.203003 C 225.290283 513.165405 219.40329 509.117157 212.439957 509.074493 C 205.482819 509.03186 199.959488 512.775146 198.469711 518.604248 C 200.337265 519.846313 201.842987 519.384399 203.170822 517.687012 C 204.314178 516.225525 205.642456 514.977783 208.266464 514.215027 M 215.596451 478.022461 C 214.320206 479.516815 212.769516 480.882416 213.141113 483.228363 C 215.232376 484.622894 216.827164 483.848511 218.313858 482.190643 C 223.447174 476.4664 229.618576 475.90329 236.397873 478.678253 C 238.13855 479.390747 240.217407 480.412598 241.184891 478.235931 C 242.345856 475.623993 239.658463 474.937012 237.988724 474.167999 C 229.994278 470.486115 222.836502 472.70874 215.596451 478.022461 M 227.005707 453.672729 C 220.990265 456.236237 219.41835 461.043579 223.522354 464.469818 C 226.036682 466.568939 228.822769 467.160004 231.7444 465.285309 C 234.089111 463.780823 236.169693 461.712769 235.261185 458.80603 C 234.197662 455.403351 231.507629 453.46814 227.005707 453.672729 M 265.572205 484.235352 C 272.899994 480.549591 276.930298 481.447205 282.786499 488.250122 C 283.900177 489.543762 285.051758 490.342072 286.613251 489.524231 C 288.412476 488.581848 287.757812 487.034973 287.184601 485.619141 C 284.065826 477.915955 269.673706 474.924835 264.025635 480.782715 C 262.339203 482.531738 262.672455 483.638794 265.572205 484.235352 M 253.95517 465.508301 C 249.87709 463.197144 246.824982 464.894348 244.797424 468.388519 C 243.147797 471.231384 244.257156 473.997467 247.016205 475.609955 C 250.178116 477.457825 253.519867 477.359253 255.988815 474.38678 C 258.62085 471.217926 257.704193 468.278595 253.95517 465.508301 M 267.516052 502.527435 C 267.100586 502.800507 266.650848 503.033356 266.275299 503.353271 C 264.192505 505.127747 262.78006 507.305969 264.736115 509.796448 C 266.580811 512.145081 268.980011 514.301514 272.372589 513.021423 C 275.128326 511.981598 277.566559 510.029083 277.279053 506.836243 C 276.984467 503.564362 274.349762 502.228851 271.215332 502.088715 C 270.230652 502.044708 269.235931 502.223969 267.516052 502.527435 M 275.101257 460.301514 C 271.631714 459.88028 269.007385 461.175293 268.414093 464.685333 C 267.950623 467.427307 269.584686 469.508148 272.319 470.298401 C 275.352539 471.175171 277.676086 469.760345 278.932587 467.170044 C 280.488922 463.961609 278.847778 461.795471 275.101257 460.301514 M 218.405899 499.08194 C 220.243011 495.453461 218.560196 493.258392 215.186768 492.39209 C 211.741653 491.507355 208.759384 492.802216 207.777313 496.393097 C 206.886642 499.64975 209.52153 501.176666 212.024872 502.094788 C 214.530563 503.013824 216.418854 501.459564 218.405899 499.08194 z" stroke-linecap="round" />
</g>
		<g transform="matrix(1 0 0 1 -257.85 -66.81)"  >
<path style="stroke: none; stroke-width: 1; stroke-dasharray: none; stroke-linecap: butt; stroke-dashoffset: 0; stroke-linejoin: miter; stroke-miterlimit: 4; fill: rgb(0,0,0); fill-rule: nonzero; opacity: 1;" vector-effect="non-scaling-stroke"  transform=" translate(-247.06, -427.79)" d="M 280.797729 360.440247 C 303.46106 365.971802 320.303589 378.744751 332.317719 398.020691 C 331.052338 399.813904 330.054535 398.861359 329.056274 398.388184 C 291.065857 380.37912 254.85466 384.185425 221.270966 408.745087 C 195.144485 427.851379 178.166443 453.740143 170.01001 485.205322 C 169.515625 487.112518 169.560013 489.153168 169.226486 491.110016 C 168.8983 493.035492 169.232468 495.117798 167.529358 497.57605 C 164.435547 491.583923 163.381012 485.398193 162.658081 479.445465 C 159.852203 456.341431 163.955887 434.268951 175.030777 413.814941 C 189.739365 386.649902 211.295334 367.692596 241.977905 360.391113 C 254.776398 357.34549 267.606781 357.031067 280.797729 360.440247 z" stroke-linecap="round" />
</g>
		<g transform="matrix(1 0 0 1 -348.51 -37.34)"  >
<path style="stroke: none; stroke-width: 1; stroke-dasharray: none; stroke-linecap: butt; stroke-dashoffset: 0; stroke-linejoin: miter; stroke-miterlimit: 4; fill: rgb(0,0,0); fill-rule: nonzero; opacity: 1;" vector-effect="non-scaling-stroke"  transform=" translate(-156.4, -457.26)" d="M 145.177795 520.815063 C 125.904854 500.715637 115.176888 476.999908 115.301865 449.572754 C 115.447289 417.662506 130.037079 393.216766 157.76059 376.935547 C 168.562592 370.591827 180.35257 367.345428 192.688812 365.835144 C 193.673203 365.714661 194.687485 365.738953 195.679077 365.813385 C 196.28688 365.859039 196.877869 366.128601 197.498154 366.303772 C 197.609528 368.646271 195.687851 369.145142 194.504593 370.074036 C 169.847382 389.429779 154.708603 414.345703 152.375748 445.812836 C 149.361832 486.466614 164.920151 519.70874 195.149139 546.476929 C 195.767929 547.024841 196.494308 547.45874 196.519119 548.411682 C 188.991257 551.168579 161.258972 537.975159 145.177795 520.815063 z" stroke-linecap="round" />
</g>
		<g transform="matrix(1 0 0 1 -329.36 24.94)"  >
<path style="stroke: none; stroke-width: 1; stroke-dasharray: none; stroke-linecap: butt; stroke-dashoffset: 0; stroke-linejoin: miter; stroke-miterlimit: 4; fill: rgb(0,0,0); fill-rule: nonzero; opacity: 1;" vector-effect="non-scaling-stroke"  transform=" translate(-175.55, -519.54)" d="M 230.04892 581.311523 C 193.480377 589.786255 159.09549 587.062012 128.464981 564.011902 C 111.587967 551.311646 101.425995 533.965759 96.786949 513.41394 C 92.64106 495.046875 94.177834 477.066864 100.92157 459.528748 C 101.774902 457.309509 102.394341 454.815247 104.509964 453.367065 C 106.01609 454.109375 105.587296 455.176422 105.501846 456.125854 C 103.57914 477.488922 110.798798 496.17868 122.95623 513.103577 C 141.186584 538.482971 166.909058 552.70874 196.438599 560.830994 C 210.114288 564.592529 224.12056 565.780212 238.277573 566.171936 C 244.341476 566.339783 250.362839 568.045471 256.613251 569.672058 C 248.618439 575.201233 239.569489 578.297363 230.04892 581.311523 z" stroke-linecap="round" />
</g>
		<g transform="matrix(1 0 0 1 -208.51 45.85)"  >
<path style="stroke: none; stroke-width: 1; stroke-dasharray: none; stroke-linecap: butt; stroke-dashoffset: 0; stroke-linejoin: miter; stroke-miterlimit: 4; fill: rgb(0,0,0); fill-rule: nonzero; opacity: 1;" vector-effect="non-scaling-stroke"  transform=" translate(-296.4, -540.45)" d="M 330.985443 591.921875 C 309.250397 621.263123 279.37973 631.80127 244.332413 631.17981 C 279.893951 616.108887 302.075928 588.845764 313.424927 553.067688 C 324.704468 517.508606 321.650269 482.661865 302.233124 449.693542 C 339.139221 468.975464 368.629608 539.983704 330.985443 591.921875 z" stroke-linecap="round" />
</g>
		<g transform="matrix(1 0 0 1 -284.47 90.39)"  >
<path style="stroke: none; stroke-width: 1; stroke-dasharray: none; stroke-linecap: butt; stroke-dashoffset: 0; stroke-linejoin: miter; stroke-miterlimit: 4; fill: rgb(0,0,0); fill-rule: nonzero; opacity: 1;" vector-effect="non-scaling-stroke"  transform=" translate(-220.45, -584.99)" d="M 258.652527 582.653687 C 276.264374 573.047607 290.670532 560.314148 302.485687 543.413513 C 303.716003 547.922791 301.70578 550.874817 300.72998 553.707031 C 286.71814 594.375244 259.03656 620.099915 216.036896 625.828979 C 185.133804 629.946289 160.71582 616.502136 143.092285 590.919678 C 141.285767 588.297363 138.934723 585.86792 138.019424 581.598633 C 178.437134 604.343262 218.34465 604.118835 258.652527 582.653687 z" stroke-linecap="round" />
</g>
		<g transform="matrix(1 0 0 1 -53.42 -29.65)"  >
<path style="stroke: none; stroke-width: 1; stroke-dasharray: none; stroke-linecap: butt; stroke-dashoffset: 0; stroke-linejoin: miter; stroke-miterlimit: 4; fill: rgb(0,0,0); fill-rule: nonzero; opacity: 1;" vector-effect="non-scaling-stroke"  transform=" translate(-451.49, -464.95)" d="M 449.658569 452.372925 C 457.135254 462.339783 464.392242 472.022491 471.6492 481.705231 C 471.999756 481.605927 472.350281 481.506622 472.700836 481.407318 C 472.700836 476.990448 472.699829 472.573578 472.700989 468.156708 C 472.704651 454.163544 472.811584 440.169159 472.647369 426.177948 C 472.60141 422.264191 473.549377 420.433472 477.896729 420.545593 C 489.738007 420.851044 487.978424 419.502869 488.043335 430.692169 C 488.178619 454.013123 488.146851 477.335846 487.999298 500.656647 C 487.982147 503.365326 489.690369 506.977081 486.075562 508.69632 C 482.082581 510.595428 473.866974 508.576843 471.480133 505.400299 C 463.277588 494.4841 455.091736 483.555176 446.942474 472.599182 C 441.582458 465.393066 436.296326 458.13205 430.601685 450.384918 C 429.208344 453.206085 429.33551 455.608063 429.334961 457.975647 C 429.331268 473.134857 429.195862 488.296265 429.42984 503.451904 C 429.49826 507.881104 428.062103 509.603271 423.693817 509.009613 C 422.223541 508.809814 420.694122 508.921326 419.202026 509.030701 C 415.728882 509.285248 414.584808 507.705231 414.597595 504.28894 C 414.696045 477.968811 414.699158 451.648041 414.608795 425.327911 C 414.597229 421.956512 415.650574 420.735687 419.1427 420.518219 C 424.280731 420.198242 427.729065 421.612549 430.722351 426.172821 C 436.563873 435.072266 443.156952 443.478394 449.658569 452.372925 z" stroke-linecap="round" />
</g>
		<g transform="matrix(1 0 0 1 356.81 -4.11)"  >
<path style="stroke: none; stroke-width: 1; stroke-dasharray: none; stroke-linecap: butt; stroke-dashoffset: 0; stroke-linejoin: miter; stroke-miterlimit: 4; fill: rgb(0,0,0); fill-rule: nonzero; opacity: 1;" vector-effect="non-scaling-stroke"  transform=" translate(-861.73, -490.49)" d="M 869.200684 509.674927 C 860.078979 511.48996 852.348572 509.178131 844.329163 502.928375 C 844.329163 509.05481 844.329712 514.09845 844.328918 519.14209 C 844.328613 521.306702 844.326538 523.471375 844.323364 525.635986 C 844.312073 533.308533 844.311768 533.308594 836.736694 533.291077 C 830.007751 533.275513 830.014038 533.275452 830.006714 526.773254 C 829.979736 502.796356 830.05835 478.81839 829.823059 454.843506 C 829.777405 450.194489 831.222656 448.382996 835.808594 449.004303 C 839.32312 449.480438 843.795044 447.31485 845.325867 453.239777 C 855.943787 446.30954 866.787476 446.164642 877.823059 451.097717 C 885.098633 454.349976 889.925781 459.985535 892.031494 467.57373 C 897.718689 488.067902 887.780457 506.043335 869.200684 509.674927 M 873.631348 464.81546 C 872.054504 463.905151 870.554504 462.809937 868.887512 462.116486 C 861.574097 459.07431 853.051147 461.012482 848.496521 466.633118 C 843.2229 473.141052 842.914734 483.034637 847.77301 489.863281 C 852.446289 496.431946 860.508301 499.075592 867.999268 496.495819 C 879.94519 492.381775 883.172668 476.054443 873.631348 464.81546 z" stroke-linecap="round" />
</g>
		<g transform="matrix(1 0 0 1 23.09 -15.53)"  >
<path style="stroke: none; stroke-width: 1; stroke-dasharray: none; stroke-linecap: butt; stroke-dashoffset: 0; stroke-linejoin: miter; stroke-miterlimit: 4; fill: rgb(0,0,0); fill-rule: nonzero; opacity: 1;" vector-effect="non-scaling-stroke"  transform=" translate(-528, -479.07)" d="M 513.783569 451.542969 C 525.632141 446.26532 536.901306 446.534698 547.285645 453.883362 C 556.824829 460.633972 559.200562 470.641449 558.244324 481.735657 C 557.955322 485.088623 555.311096 484.329285 553.293701 484.339905 C 542.299316 484.397827 531.304565 484.35199 520.310059 484.394684 C 517.998779 484.403656 515.688232 484.63382 513.388733 484.761414 C 513.652344 493.217926 522.963135 499.380524 532.350586 497.37616 C 534.586792 496.898682 537.38916 496.32724 538.704712 494.765747 C 543.936646 488.555878 550.302612 492.561493 556.342651 491.463196 C 553.857605 502.138885 542.726624 509.684601 529.6651 510.193695 C 515.798889 510.734161 503.043335 502.113312 499.220245 489.617554 C 494.542328 474.327789 499.900116 460.041443 513.783569 451.542969 M 527.001831 460.702759 C 520.509155 461.958466 515.430237 464.853027 513.39563 471.815002 C 518.495178 472.955566 538.829407 472.889618 542.932434 471.849762 C 542.616699 464.790375 538.187073 461.493896 527.001831 460.702759 z" stroke-linecap="round" />
</g>
		<g transform="matrix(1 0 0 1 218.8 -15.44)"  >
<path style="stroke: none; stroke-width: 1; stroke-dasharray: none; stroke-linecap: butt; stroke-dashoffset: 0; stroke-linejoin: miter; stroke-miterlimit: 4; fill: rgb(0,0,0); fill-rule: nonzero; opacity: 1;" vector-effect="non-scaling-stroke"  transform=" translate(-723.71, -479.16)" d="M 735.634155 449.953979 C 749.839294 456.532104 756.028748 466.699554 755.313782 481.791595 C 754.75 493.693604 746.590271 504.477844 735.166443 508.419159 C 713.507507 515.891602 691.914856 501.621124 692.055908 479.072083 C 692.150024 464.021057 700.986206 452.216705 716.61792 448.653412 C 723.015625 447.195007 729.134399 448.013275 735.634155 449.953979 M 715.388123 462.73941 C 708.540588 466.877625 705.863098 473.147003 706.400024 480.880188 C 707.036194 490.042633 713.347534 496.673645 722.038757 497.5896 C 730.153198 498.444824 738.619629 493.036224 740.279358 485.220367 C 741.811035 478.007629 741.435059 470.704254 735.546692 465.283539 C 729.883972 460.070557 723.148926 459.390076 715.388123 462.73941 z" stroke-linecap="round" />
</g>
		<g transform="matrix(1 0 0 1 286.28 -15.47)"  >
<path style="stroke: none; stroke-width: 1; stroke-dasharray: none; stroke-linecap: butt; stroke-dashoffset: 0; stroke-linejoin: miter; stroke-miterlimit: 4; fill: rgb(0,0,0); fill-rule: nonzero; opacity: 1;" vector-effect="non-scaling-stroke"  transform=" translate(-791.19, -479.13)" d="M 822.382812 479.937622 C 822.095642 496.82724 810.710999 508.823456 794.090027 510.212708 C 777.130493 511.630249 763.439148 501.313934 760.555359 484.944427 C 757.522034 467.726471 767.182922 452.40097 783.310059 448.847626 C 801.147278 444.917511 816.764282 453.818542 821.670593 470.564697 C 822.54303 473.542389 822.181091 476.499878 822.382812 479.937622 M 808.470459 476.118011 C 808.258545 475.488281 808.013855 474.867432 807.839539 474.227448 C 805.406555 465.295929 798.147034 459.922211 789.524353 460.681 C 781.796509 461.361023 775.302795 467.411743 774.295471 474.870941 C 772.804016 485.914459 776.857605 493.830597 785.477356 496.707275 C 798.197083 500.952271 808.791748 491.888702 808.470459 476.118011 z" stroke-linecap="round" />
</g>
		<g transform="matrix(1 0 0 1 85.16 -15.38)"  >
<path style="stroke: none; stroke-width: 1; stroke-dasharray: none; stroke-linecap: butt; stroke-dashoffset: 0; stroke-linejoin: miter; stroke-miterlimit: 4; fill: rgb(0,0,0); fill-rule: nonzero; opacity: 1;" vector-effect="non-scaling-stroke"  transform=" translate(-590.07, -479.22)" d="M 608.289917 477.508911 C 618.538452 483.61792 616.398438 498.854767 608.432312 504.670135 C 598.485046 511.931854 582.76178 512.439209 572.72113 505.477692 C 567.517639 501.869934 565.439819 496.746033 564.929504 490.569946 C 568.758362 489.061981 572.427124 489.882599 576.015076 489.743713 C 578.021545 489.666046 578.224426 491.387268 578.916382 492.656281 C 582.312622 498.884399 592.355347 501.019836 598.017395 496.738708 C 602.096008 493.654846 601.703064 489.12381 597.094116 486.778839 C 593.767517 485.086273 590.001465 485.18808 586.459229 484.365997 C 583.229004 483.616364 579.925781 483.104187 576.774109 482.109375 C 570.78949 480.220337 566.467163 476.46759 565.733582 469.917511 C 564.955566 462.969269 567.292297 457.051422 573.102539 452.931061 C 582.476929 446.283203 596.669617 446.431915 605.9953 453.069031 C 608.065552 454.542419 609.915588 456.281799 610.929199 458.598816 C 612.290466 461.710602 615.109924 465.56604 612.338257 468.233429 C 609.823059 470.654083 605.36145 469.080322 601.757202 468.840454 C 600.44281 468.75296 600.117126 467.478271 599.552917 466.4216 C 596.471252 460.649933 589.568481 458.575897 583.747742 461.548615 C 581.497742 462.697662 579.996887 464.32843 580.276733 467.048004 C 580.533508 469.543121 582.170837 470.982849 584.403992 471.494965 C 588.116699 472.346344 591.87207 473.148071 595.653931 473.526306 C 600.057373 473.966705 604.061462 475.403778 608.289917 477.508911 z" stroke-linecap="round" />
</g>
		<g transform="matrix(1 0 0 1 135.36 -24.27)"  >
<path style="stroke: none; stroke-width: 1; stroke-dasharray: none; stroke-linecap: butt; stroke-dashoffset: 0; stroke-linejoin: miter; stroke-miterlimit: 4; fill: rgb(0,0,0); fill-rule: nonzero; opacity: 1;" vector-effect="non-scaling-stroke"  transform=" translate(-640.28, -470.33)" d="M 632.652222 470.124146 C 632.650818 468.478607 632.548401 467.302429 632.667175 466.149017 C 633.053589 462.39563 631.302795 461.22226 627.696716 461.244507 C 621.198364 461.284515 618.92041 457.791412 620.847229 451.465454 C 621.712952 448.622986 623.928833 449.497101 625.784973 449.531769 C 632.635376 449.659851 632.635071 449.691742 632.6521 442.751953 C 632.654968 441.586212 632.651672 440.420441 632.653992 439.2547 C 632.66925 431.612671 632.669495 431.61264 640.218811 431.624939 C 647.292847 431.636444 647.292908 431.636475 647.318665 438.740234 C 647.356689 449.217865 647.356812 449.214233 657.595459 449.665619 C 658.252197 449.69455 658.903687 449.843689 659.427124 449.918335 C 660.59314 450.911377 660.342712 452.137756 660.341492 453.27179 C 660.331421 462.290283 660.606934 461.341187 652.624268 461.176239 C 648.42627 461.089539 647.167297 462.734619 647.23053 466.766754 C 647.421082 478.920929 647.147156 491.08313 647.394226 503.235291 C 647.482178 507.563477 646.166504 509.505951 641.739502 508.939178 C 640.592102 508.792297 639.406189 508.840973 638.24585 508.917847 C 634.032166 509.197021 632.440002 507.490875 632.559143 503.075867 C 632.851074 492.258942 632.653198 481.428772 632.652222 470.124146 z" stroke-linecap="round" />
</g>
		<g transform="matrix(1 0 0 1 171.98 -29.71)"  >
<path style="stroke: none; stroke-width: 1; stroke-dasharray: none; stroke-linecap: butt; stroke-dashoffset: 0; stroke-linejoin: miter; stroke-miterlimit: 4; fill: rgb(0,0,0); fill-rule: nonzero; opacity: 1;" vector-effect="non-scaling-stroke"  transform=" translate(-676.9, -464.89)" d="M 684.109375 501.872864 C 683.626587 504.457092 685.393555 507.715668 682.376892 508.444733 C 678.570862 509.364563 674.440674 509.600891 670.636597 508.046417 C 669.248291 507.479126 669.663208 505.708557 669.662476 504.421753 C 669.647278 477.981537 669.7052 451.541107 669.598511 425.101349 C 669.583923 421.491669 671.070557 420.580933 674.358093 420.613342 C 686.041565 420.728668 684.001221 419.926239 684.056763 430.052063 C 684.187195 453.831024 684.107361 477.611115 684.109375 501.872864 z" stroke-linecap="round" />
</g>
		<g transform="matrix(1 0 0 1 27.67 61.48)"  >
<path style="stroke: none; stroke-width: 1; stroke-dasharray: none; stroke-linecap: butt; stroke-dashoffset: 0; stroke-linejoin: miter; stroke-miterlimit: 4; fill: rgb(0,0,0); fill-rule: nonzero; opacity: 1;" vector-effect="non-scaling-stroke"  transform=" translate(-532.58, -556.08)" d="M 521.360718 571.177429 C 518.745483 570.946411 516.915588 568.485413 514.154724 570.59259 C 512.757263 571.659241 510.91626 570.323792 510.907104 568.151672 C 510.872833 559.999756 510.891235 551.847412 510.922577 543.695435 C 510.929108 541.990845 511.596832 540.780334 513.579773 540.877502 C 515.271973 540.960449 515.772461 542.068542 515.938354 543.536804 C 516.158875 545.488464 515.653809 547.52948 516.732483 549.697815 C 524.456604 547.382507 530.403931 549.31781 533.246582 557.668274 C 538.423462 550.141296 542.31012 548.215149 548.069702 550.111816 C 552.73468 551.64801 554.731812 555.398132 554.193176 561.833496 C 549.6604 563.492554 544.71991 561.283386 539.644165 562.959961 C 540.931091 566.425842 543.318726 567.072205 546.327209 566.484741 C 548.725464 566.016479 550.34021 562.550232 553.660217 564.698608 C 552.430542 569.258057 548.985168 570.890808 544.837036 571.243042 C 539.490967 571.696838 535.960266 568.720886 532.958374 561.443176 C 531.565125 567.706482 527.733032 570.780701 521.360718 571.177429 M 527.59375 558.092041 C 524.837158 552.90979 520.292236 551.830627 517.231506 555.729675 C 515.368469 558.103149 514.698486 560.764343 516.654846 563.473328 C 518.186462 565.594299 520.176941 567.212158 522.934814 566.432007 C 526.653381 565.380066 528.141724 562.654968 527.59375 558.092041 M 548.503784 556.231445 C 545.414001 553.17981 542.749634 553.656311 540.422119 557.132019 C 543.206116 557.370483 546.022095 558.918335 548.503784 556.231445 z" stroke-linecap="round" />
</g>
		<g transform="matrix(1 0 0 1 -71.26 112.54)"  >
<path style="stroke: none; stroke-width: 1; stroke-dasharray: none; stroke-linecap: butt; stroke-dashoffset: 0; stroke-linejoin: miter; stroke-miterlimit: 4; fill: rgb(0,0,0); fill-rule: nonzero; opacity: 1;" vector-effect="non-scaling-stroke"  transform=" translate(-433.66, -607.14)" d="M 428.03186 604.970581 C 429.483032 606.306519 430.934204 607.642456 432.415375 609.005981 C 434.419434 607.710266 433.493256 606.013062 433.226227 604.503601 C 432.896423 602.638977 433.205139 600.86322 433.626343 599.071594 C 433.983307 597.553223 434.907715 596.775391 436.470215 596.869568 C 438.243317 596.976318 438.570038 598.220581 438.552856 599.675293 C 438.521362 602.337769 438.227844 605.025513 438.49939 607.655701 C 438.805115 610.617126 440.058044 613.521301 443.604462 613.250305 C 446.777161 613.007874 447.804321 610.459839 447.704956 607.409546 C 447.618317 604.749512 447.679596 602.081238 447.773346 599.420044 C 447.829224 597.833496 448.802063 597.025757 450.380127 597.035645 C 451.896271 597.045166 452.372314 598.066956 452.377533 599.355774 C 452.40097 605.143066 452.387756 610.930542 452.387756 617.171936 C 445.346802 616.295837 437.726837 621.281555 433.532501 611.124023 C 429.852783 617.632935 424.67157 618.608582 418.832275 616.736877 C 416.273621 615.916748 415.187439 613.638245 414.924377 610.937622 C 419.303711 608.328308 422.782074 618.177795 427.016785 611.389343 C 425.816345 608.588013 422.998871 609.379395 420.943237 608.718872 C 418.024384 607.781189 415.655609 606.714844 415.646454 603.125671 C 415.636963 599.391418 418.053406 597.795227 421.14325 597.009399 C 424.811768 596.076355 428.166473 596.828308 430.493805 600.033142 C 432.18573 602.363098 432.323029 604.426636 428.164185 604.711304 C 424.45517 600.006165 424.083557 599.91687 420.790619 602.926025 C 422.670837 605.547241 425.597687 604.429565 428.03186 604.970581 z" stroke-linecap="round" />
</g>
		<g transform="matrix(1 0 0 1 -76.5 61.88)"  >
<path style="stroke: none; stroke-width: 1; stroke-dasharray: none; stroke-linecap: butt; stroke-dashoffset: 0; stroke-linejoin: miter; stroke-miterlimit: 4; fill: rgb(0,0,0); fill-rule: nonzero; opacity: 1;" vector-effect="non-scaling-stroke"  transform=" translate(-428.42, -556.48)" d="M 415.474365 560.998169 C 412.878876 548.590271 420.064758 540.423584 431.986023 541.699158 C 437.529114 542.292297 441.265015 546.030579 441.823486 551.599426 C 439.145416 553.068787 437.569885 551.474915 435.978241 549.599915 C 433.335938 546.487244 429.964142 545.439087 426.131622 546.916382 C 421.946594 548.529541 420.03064 551.761963 420.087616 556.267517 C 420.142639 560.61499 421.529327 563.967468 425.851837 565.786865 C 430.455444 567.724548 433.674103 565.701904 436.117889 562.209961 C 437.767456 559.852844 439.424988 559.262695 441.89035 560.407349 C 441.581268 566.138428 437.958984 569.822021 431.487122 571.097229 C 424.523071 572.469421 418.989197 569.088257 415.474365 560.998169 z" stroke-linecap="round" />
</g>
		<g transform="matrix(1 0 0 1 162.04 61.5)"  >
<path style="stroke: none; stroke-width: 1; stroke-dasharray: none; stroke-linecap: butt; stroke-dashoffset: 0; stroke-linejoin: miter; stroke-miterlimit: 4; fill: rgb(0,0,0); fill-rule: nonzero; opacity: 1;" vector-effect="non-scaling-stroke"  transform=" translate(-666.95, -556.1)" d="M 655.723267 562.898193 C 655.724915 556.606628 655.695557 550.796875 655.746948 544.987915 C 655.762756 543.204285 655.529236 541.029541 658.200073 540.911682 C 661.214783 540.778625 660.957764 543.084839 661.058655 545.0849 C 661.132568 546.549438 660.802002 548.079712 661.645142 549.445679 C 662.999695 550.202454 664.216125 549.367493 665.482727 549.187805 C 669.938538 548.555481 673.736267 549.695984 676.317932 553.583435 C 678.992615 557.610779 678.835388 563.523071 675.78656 567.147217 C 672.763489 570.740906 668.833923 572.107361 664.178223 570.826477 C 663.381836 570.607422 662.446533 569.805359 661.872559 570.030518 C 654.01062 573.113586 656.031372 567.186218 655.723267 562.898193 M 666.634338 553.445374 C 665.576477 553.866943 664.314514 554.050903 663.497437 554.752747 C 660.56311 557.273071 659.356812 560.308167 661.739929 563.871887 C 663.666016 566.752258 666.520386 567.590393 669.509399 566.10498 C 673.322144 564.210205 673.413086 560.651611 672.276794 557.114807 C 671.567383 554.906799 669.610352 553.868958 666.634338 553.445374 z" stroke-linecap="round" />
</g>
		<g transform="matrix(1 0 0 1 232.71 112.94)"  >
<path style="stroke: none; stroke-width: 1; stroke-dasharray: none; stroke-linecap: butt; stroke-dashoffset: 0; stroke-linejoin: miter; stroke-miterlimit: 4; fill: rgb(0,0,0); fill-rule: nonzero; opacity: 1;" vector-effect="non-scaling-stroke"  transform=" translate(-737.63, -607.54)" d="M 749.18042 617.6073 C 746.534363 614.096008 747.997742 610.351379 747.709351 606.800049 C 747.504822 604.281067 747.194153 601.759521 744.207458 601.747742 C 741.422852 601.736755 740.388977 604.008118 740.345642 606.626526 C 740.298767 609.453369 740.291321 612.280945 740.228149 615.107361 C 740.188904 616.864624 739.40509 617.988953 737.483276 617.835083 C 735.635437 617.687195 735.614258 616.302612 735.609802 614.909546 C 735.60022 611.91626 735.654053 608.918152 735.500488 605.931335 C 735.377686 603.543884 734.244385 601.589844 731.634155 601.564453 C 729.094971 601.539734 727.699646 603.391846 727.487976 605.744934 C 727.220703 608.71759 727.344604 611.725037 727.291504 614.717407 C 727.262207 616.368164 726.857971 617.765076 724.807251 617.665344 C 723.028503 617.578796 722.736145 616.256531 722.730957 614.841431 C 722.713257 610.018311 722.758545 605.194763 722.718445 600.371948 C 722.697693 597.877258 724.14563 597.087708 726.250549 597.441284 C 728.112671 597.75415 730.08252 596.93042 731.633972 597.351807 C 736.435974 598.656128 741.06427 598.419312 745.837219 597.444275 C 747.184021 597.169128 748.756775 597.73053 749.989929 598.796265 C 752.70166 601.139771 753.547974 614.904236 751.025208 617.552917 C 750.761658 617.829529 750.077148 617.705261 749.18042 617.6073 z" stroke-linecap="round" />
</g>
		<g transform="matrix(1 0 0 1 71.48 112.48)"  >
<path style="stroke: none; stroke-width: 1; stroke-dasharray: none; stroke-linecap: butt; stroke-dashoffset: 0; stroke-linejoin: miter; stroke-miterlimit: 4; fill: rgb(0,0,0); fill-rule: nonzero; opacity: 1;" vector-effect="non-scaling-stroke"  transform=" translate(-576.4, -607.08)" d="M 590.38855 601.451233 C 589.137024 605.104858 588.141113 608.468323 586.768372 611.670227 C 585.865784 613.775513 586.108276 617.176147 582.680359 617.14447 C 579.569397 617.115784 579.774719 613.929199 578.828491 611.977417 C 577.834412 609.926697 577.177673 607.712463 576.089355 604.8125 C 574.643555 608.703857 573.452576 611.903015 572.266785 615.104126 C 571.757385 616.479309 570.857971 617.333679 569.319397 617.36322 C 568.000732 617.388489 567.216003 616.759888 566.638611 615.558716 C 565.864746 613.948853 561.655151 599.872986 561.365051 597.079102 C 569.35321 596.460693 565.923096 605.051575 570.248474 607.482361 C 571.13678 604.974731 572.028564 602.357056 572.995667 599.767456 C 573.522949 598.355469 574.108093 596.950623 575.994873 596.869873 C 577.88092 596.789124 578.616455 598.094971 579.202026 599.503113 C 580.323608 602.200378 581.362671 604.931946 582.837585 608.666321 C 584.24585 604.843872 585.273438 602.092468 586.272095 599.330505 C 586.921387 597.534729 588.172607 596.328674 590.042603 596.983948 C 592.613708 597.884827 590.91095 599.644775 590.38855 601.451233 z" stroke-linecap="round" />
</g>
		<g transform="matrix(1 0 0 1 -14.2 116.69)"  >
<path style="stroke: none; stroke-width: 1; stroke-dasharray: none; stroke-linecap: butt; stroke-dashoffset: 0; stroke-linejoin: miter; stroke-miterlimit: 4; fill: rgb(0,0,0); fill-rule: nonzero; opacity: 1;" vector-effect="non-scaling-stroke"  transform=" translate(-490.71, -611.29)" d="M 480.060486 609.023071 C 480.045532 607.698303 479.897247 606.846619 480.028595 606.040588 C 480.513336 603.065613 478.531799 597.745178 481.544159 597.547546 C 486.937225 597.193726 493.110382 594.910767 498.160126 599.337463 C 501.554321 602.312866 502.124939 606.191711 501.199554 610.282471 C 499.978699 615.67926 494.570129 618.420471 488.101288 617.151001 C 487.171692 616.968567 486.281647 616.584839 485.038605 616.187195 C 485.038605 618.633118 485.03241 620.765259 485.040649 622.897461 C 485.047119 624.570068 484.60434 625.933899 482.615051 625.937378 C 480.7034 625.940735 480.013947 624.648804 480.005035 622.977295 C 479.98111 618.490784 480.033417 614.003845 480.060486 609.023071 M 491.240723 613.452271 C 492.151794 613.05127 493.137482 612.764404 493.959808 612.227539 C 496.322113 610.68512 497.206238 608.417053 496.445465 605.734375 C 495.68985 603.070007 493.771088 601.587585 490.965332 601.40979 C 487.801117 601.209229 485.805481 603.006104 485.007782 605.744995 C 483.645294 610.422974 486.713623 612.318787 491.240723 613.452271 z" stroke-linecap="round" />
</g>
		<g transform="matrix(1 0 0 1 251.45 62.27)"  >
<path style="stroke: none; stroke-width: 1; stroke-dasharray: none; stroke-linecap: butt; stroke-dashoffset: 0; stroke-linejoin: miter; stroke-miterlimit: 4; fill: rgb(0,0,0); fill-rule: nonzero; opacity: 1;" vector-effect="non-scaling-stroke"  transform=" translate(-756.37, -556.87)" d="M 758.918335 571.581299 C 750.680725 572.449646 745.56897 568.348022 745.469299 561.180603 C 745.356323 553.049988 750.172974 550.024353 762.140686 550.749695 C 763.077209 548.88031 762.481079 546.846802 762.684143 544.897522 C 762.827881 543.517822 762.946533 542.141907 764.748718 542.055786 C 766.77417 541.959045 767.25769 543.322571 767.260193 544.983826 C 767.273071 553.597717 767.266235 562.211609 767.266235 570.550232 C 764.458496 572.576172 761.656921 569.621826 758.918335 571.581299 M 762.507324 559.083313 C 759.335754 554.149719 755.656494 553.002991 752.585938 556.130432 C 750.451416 558.304626 749.558777 560.929565 751.119629 563.83844 C 752.474548 566.363708 754.534058 568.165955 757.550537 567.355286 C 761.236328 566.364624 762.891418 563.661377 762.507324 559.083313 z" stroke-linecap="round" />
</g>
		<g transform="matrix(1 0 0 1 126.57 61.63)"  >
<path style="stroke: none; stroke-width: 1; stroke-dasharray: none; stroke-linecap: butt; stroke-dashoffset: 0; stroke-linejoin: miter; stroke-miterlimit: 4; fill: rgb(0,0,0); fill-rule: nonzero; opacity: 1;" vector-effect="non-scaling-stroke"  transform=" translate(-631.48, -556.23)" d="M 642.343018 566.704285 C 642.427429 570.337097 641.480286 572.186218 637.936401 570.476929 C 636.90155 569.977844 636.016479 570.286621 635.069885 570.614502 C 630.011658 572.366943 625.823059 570.976685 622.751831 566.746521 C 619.785583 562.660889 620.086975 558.205444 622.576233 554.049316 C 625.30426 549.494568 629.797058 549.215088 634.478271 549.916504 C 635.268738 550.035034 636.022339 550.399353 636.846191 550.66748 C 638.254822 548.526489 637.456665 546.313232 637.685608 544.244629 C 637.859253 542.675171 637.977478 541.131042 640.044861 541.110229 C 642.19519 541.088562 642.297607 542.727356 642.305664 544.255676 C 642.34436 551.585571 642.337341 558.915588 642.343018 566.704285 M 625.594788 561.251526 C 626.588562 564.544373 628.307922 567.039673 632.218689 566.657227 C 635.182129 566.367371 637.138855 564.687378 637.592834 561.686707 C 638.123474 558.179077 637.088562 555.392456 633.325989 554.376099 C 629.412659 553.319092 627.163574 555.157166 625.594788 561.251526 z" stroke-linecap="round" />
</g>
		<g transform="matrix(1 0 0 1 -38.22 116.9)"  >
<path style="stroke: none; stroke-width: 1; stroke-dasharray: none; stroke-linecap: butt; stroke-dashoffset: 0; stroke-linejoin: miter; stroke-miterlimit: 4; fill: rgb(0,0,0); fill-rule: nonzero; opacity: 1;" vector-effect="non-scaling-stroke"  transform=" translate(-466.7, -611.5)" d="M 477.335022 607.909424 C 475.893829 616.384888 470.770264 618.991882 461.0625 616.458679 C 461.0625 618.797852 461.072083 621.088135 461.059113 623.378357 C 461.050568 624.883484 460.514282 625.983887 458.799622 626.026917 C 456.828766 626.076416 456.23465 624.843567 456.21936 623.141541 C 456.155426 616.023743 456.075073 608.905945 456.058228 601.788025 C 456.051056 598.762634 456.59317 596.213745 460.651489 597.839355 C 461.847015 598.318176 462.918427 597.727966 464.030792 597.451111 C 471.768585 595.525757 476.823792 599.338745 477.335022 607.909424 M 460.940155 606.200134 C 460.952728 611.689209 464.63974 614.828552 468.838135 612.893188 C 471.514771 611.659363 472.958923 609.617065 472.633118 606.572937 C 472.351746 603.943909 470.72049 602.28772 468.319733 601.674622 C 464.900574 600.801514 462.593201 602.445679 460.940155 606.200134 z" stroke-linecap="round" />
</g>
		<g transform="matrix(1 0 0 1 -17.15 65.68)"  >
<path style="stroke: none; stroke-width: 1; stroke-dasharray: none; stroke-linecap: butt; stroke-dashoffset: 0; stroke-linejoin: miter; stroke-miterlimit: 4; fill: rgb(0,0,0); fill-rule: nonzero; opacity: 1;" vector-effect="non-scaling-stroke"  transform=" translate(-487.77, -560.28)" d="M 497.557556 555.863586 C 499.342407 565.189941 494.282135 572.044006 486.76889 571.057922 C 481.515442 570.368469 478.128113 567.002136 477.68457 562.029785 C 477.158722 556.134888 479.752472 551.546753 484.456635 550.050232 C 489.925903 548.310364 494.052734 550.049683 497.557556 555.863586 M 483.319061 563.173218 C 486.816406 568.071045 490.270142 567.932495 492.817627 562.584595 C 489.691528 562.057068 486.655701 561.896545 483.319061 563.173218 M 489.797729 557.658325 C 492.110443 557.41748 493.2052 556.444702 490.703064 554.959106 C 488.149933 553.443359 485.531799 553.502136 483.722382 556.87915 C 485.556366 558.087463 487.355438 557.662476 489.797729 557.658325 z" stroke-linecap="round" />
</g>
		<g transform="matrix(1 0 0 1 318.1 66.21)"  >
<path style="stroke: none; stroke-width: 1; stroke-dasharray: none; stroke-linecap: butt; stroke-dashoffset: 0; stroke-linejoin: miter; stroke-miterlimit: 4; fill: rgb(0,0,0); fill-rule: nonzero; opacity: 1;" vector-effect="non-scaling-stroke"  transform=" translate(-823.01, -560.81)" d="M 830.62146 568.857544 C 826.210388 572.214233 821.672241 572.646973 817.338318 570.014954 C 813.024902 567.395447 811.939941 562.97168 812.890137 558.227234 C 813.797302 553.697693 816.912415 551.092651 821.339905 550.100647 C 827.204895 548.786499 833.706787 553.906616 833.439087 559.446472 C 833.319824 561.913879 832.515564 563.113708 829.801392 562.751953 C 825.908936 562.233093 821.986511 562.026489 817.979797 562.937195 C 820.799255 568.008301 822.803711 568.682922 827.009888 565.87262 C 828.781494 564.688965 830.33136 563.698303 832.350525 565.160339 C 832.908325 566.791138 831.667297 567.606262 830.62146 568.857544 M 822.018066 554.55304 C 820.595886 555.277161 818.875122 555.736511 819.01062 558.197632 C 821.81134 558.657593 824.554749 559.309875 827.471863 557.638 C 826.485596 555.271362 824.875732 554.449402 822.018066 554.55304 z" stroke-linecap="round" />
</g>
		<g transform="matrix(1 0 0 1 401.32 5.98)"  >
<path style="stroke: none; stroke-width: 1; stroke-dasharray: none; stroke-linecap: butt; stroke-dashoffset: 0; stroke-linejoin: miter; stroke-miterlimit: 4; fill: rgb(0,0,0); fill-rule: nonzero; opacity: 1;" vector-effect="non-scaling-stroke"  transform=" translate(-906.23, -500.58)" d="M 915.330994 500.034668 C 915.349609 504.812439 913.316284 507.946289 909.159485 509.047119 C 905.507019 510.014404 901.826599 509.634277 899.160706 506.324738 C 896.693726 503.262268 896.623169 499.905365 898.197815 496.478607 C 900.08252 492.377167 903.639648 491.215546 907.740234 491.79892 C 912.134705 492.424072 915.064941 494.810791 915.330994 500.034668 z" stroke-linecap="round" />
</g>
		<g transform="matrix(1 0 0 1 -51.93 65.69)"  >
<path style="stroke: none; stroke-width: 1; stroke-dasharray: none; stroke-linecap: butt; stroke-dashoffset: 0; stroke-linejoin: miter; stroke-miterlimit: 4; fill: rgb(0,0,0); fill-rule: nonzero; opacity: 1;" vector-effect="non-scaling-stroke"  transform=" translate(-452.99, -560.29)" d="M 456.942078 555.713989 C 454.421051 552.39093 451.953979 553.03363 449.666138 555.445374 C 448.388428 556.792175 446.997528 557.982483 445.500854 556.389343 C 443.850891 554.632996 445.307617 552.840942 446.607849 551.636292 C 449.787994 548.689941 453.731415 548.958374 457.451385 550.068054 C 460.851471 551.082458 462.296997 553.919922 462.306213 557.433777 C 462.317078 561.569824 462.308777 565.705933 462.308777 570.144836 C 458.652863 570.263611 455.465546 570.71344 452.285767 571.195618 C 447.867615 571.865601 443.967072 568.613953 443.676361 564.73938 C 443.40152 561.076904 446.592072 558.26825 451.19104 557.616516 C 453.160461 557.337402 455.879272 559.28009 456.942078 555.713989 M 450.432709 566.453796 C 453.58493 567.128418 456.225677 566.911682 456.934448 562.915588 C 454.480316 561.452454 452.212128 560.720276 449.858429 562.447021 C 448.295807 563.593445 448.391418 564.87323 450.432709 566.453796 z" stroke-linecap="round" />
</g>
		<g transform="matrix(1 0 0 1 274.24 66.3)"  >
<path style="stroke: none; stroke-width: 1; stroke-dasharray: none; stroke-linecap: butt; stroke-dashoffset: 0; stroke-linejoin: miter; stroke-miterlimit: 4; fill: rgb(0,0,0); fill-rule: nonzero; opacity: 1;" vector-effect="non-scaling-stroke"  transform=" translate(-779.15, -560.9)" d="M 777.397705 549.853149 C 785.719543 549.807007 788.278076 552.324768 788.31073 560.110168 C 788.312805 560.608154 788.357605 561.112244 788.29718 561.603027 C 787.920776 564.661133 789.751709 569.544067 787.206787 570.402405 C 783.504883 571.65094 779.005249 572.61261 774.760376 571.384949 C 771.286255 570.380188 769.332153 567.995361 769.784485 564.383179 C 770.221863 560.890564 772.284363 558.749329 776.120544 558.636902 C 778.374329 558.570984 780.734985 559.10321 783.55011 557.738892 C 782.131409 554.007874 779.703003 553.498108 776.601562 554.833801 C 774.769897 555.62262 772.963684 559.311401 771.174316 555.924133 C 769.790405 553.304199 772.79303 551.689575 775.114197 550.612183 C 775.713806 550.333862 776.359131 550.154114 777.397705 549.853149 M 776.272156 567.362854 C 779.669739 567.915771 782.43335 567.470825 783.043945 563.35968 C 781.074829 561.782959 778.98999 562.009583 777.14917 562.442993 C 774.555542 563.053467 773.401184 564.605042 776.272156 567.362854 z" stroke-linecap="round" />
</g>
		<g transform="matrix(1 0 0 1 184.99 65.97)"  >
<path style="stroke: none; stroke-width: 1; stroke-dasharray: none; stroke-linecap: butt; stroke-dashoffset: 0; stroke-linejoin: miter; stroke-miterlimit: 4; fill: rgb(0,0,0); fill-rule: nonzero; opacity: 1;" vector-effect="non-scaling-stroke"  transform=" translate(-689.9, -560.57)" d="M 691.748657 571.324097 C 685.952393 571.716248 681.858154 569.769104 679.752319 564.628174 C 677.887878 560.076477 679.222534 555.916992 682.584167 552.796692 C 686.138672 549.497375 690.560852 548.846313 695.094116 551.053467 C 699.337402 553.119385 700.974976 556.888 700.899231 561.283752 C 700.809143 566.513184 697.912903 569.576843 691.748657 571.324097 M 683.83429 561.221313 C 684.613708 564.985107 686.721741 567.264038 690.764526 566.843567 C 693.810913 566.526672 695.444153 564.568054 695.747375 561.513123 C 696.11554 557.804138 694.597534 555.12738 690.901978 554.570129 C 686.623108 553.924927 684.519165 556.571777 683.83429 561.221313 z" stroke-linecap="round" />
</g>
		<g transform="matrix(1 0 0 1 81.63 65.95)"  >
<path style="stroke: none; stroke-width: 1; stroke-dasharray: none; stroke-linecap: butt; stroke-dashoffset: 0; stroke-linejoin: miter; stroke-miterlimit: 4; fill: rgb(0,0,0); fill-rule: nonzero; opacity: 1;" vector-effect="non-scaling-stroke"  transform=" translate(-586.54, -560.55)" d="M 587.801331 571.291382 C 580.803406 570.906372 577.520142 568.684387 576.139648 563.510254 C 574.913879 558.916077 575.844666 554.816223 579.89856 552.055176 C 584.087158 549.202454 588.523682 548.986755 592.951538 551.831482 C 597.231506 554.581238 597.962708 558.72998 597.158936 563.19104 C 596.292542 567.999451 592.920715 570.476929 587.801331 571.291382 M 592.001892 563.483826 C 593.549377 559.546265 592.170776 556.564453 588.578186 554.882629 C 585.255066 553.327026 582.897583 555.190735 581.270996 558.06189 C 579.580383 561.046326 580.605103 563.627319 583.047791 565.462708 C 586.177612 567.814331 589.201294 567.349792 592.001892 563.483826 z" stroke-linecap="round" />
</g>
		<g transform="matrix(1 0 0 1 119.58 108.41)"  >
<path style="stroke: none; stroke-width: 1; stroke-dasharray: none; stroke-linecap: butt; stroke-dashoffset: 0; stroke-linejoin: miter; stroke-miterlimit: 4; fill: rgb(0,0,0); fill-rule: nonzero; opacity: 1;" vector-effect="non-scaling-stroke"  transform=" translate(-624.49, -603.01)" d="M 628.863831 614.579834 C 628.796387 611.313232 628.822388 608.48877 628.713379 605.669556 C 628.616455 603.161499 627.304749 601.524231 624.718994 601.513367 C 622.221313 601.502808 620.625977 603.010803 620.403137 605.469971 C 620.134033 608.439392 620.212524 611.439209 620.101562 614.424438 C 620.038574 616.12085 619.394958 617.339172 617.414734 617.203796 C 615.486572 617.072144 615.60083 615.652466 615.602295 614.297974 C 615.610229 606.843689 615.602356 599.389404 615.624207 591.93512 C 615.62854 590.457214 615.425293 588.786987 617.717896 588.775024 C 619.784912 588.764221 620.14386 590.117493 620.152954 591.758972 C 620.163025 593.566895 620.155212 595.374878 620.155212 596.92926 C 621.830811 598.263794 623.007324 597.140442 624.235168 596.961609 C 629.315857 596.221863 633.12738 599.210938 633.317566 604.243835 C 633.442871 607.559753 633.373779 610.88446 633.329285 614.204407 C 633.314514 615.309509 633.598755 616.705261 632.076843 617.101624 C 630.351929 617.551025 629.150879 616.951111 628.863831 614.579834 z" stroke-linecap="round" />
</g>
		<g transform="matrix(1 0 0 1 141.85 112.82)"  >
<path style="stroke: none; stroke-width: 1; stroke-dasharray: none; stroke-linecap: butt; stroke-dashoffset: 0; stroke-linejoin: miter; stroke-miterlimit: 4; fill: rgb(0,0,0); fill-rule: nonzero; opacity: 1;" vector-effect="non-scaling-stroke"  transform=" translate(-646.77, -607.42)" d="M 643.671753 617.769775 C 637.542664 615.044983 634.961731 610.72583 636.111877 605.621643 C 637.313477 600.289307 641.49353 596.907532 646.778259 596.992432 C 652.090515 597.077759 656.353394 600.555237 657.458008 605.704529 C 658.999939 612.892334 652.682739 618.639526 643.671753 617.769775 M 648.640747 601.894104 C 645.623169 600.700562 643.46344 602.085571 641.759399 604.368774 C 640.518066 606.032043 639.957886 607.893066 641.105652 609.947205 C 642.314453 612.110535 643.850891 613.700806 646.537354 613.64624 C 649.408569 613.58783 651.195496 611.947083 652.133972 609.442505 C 653.321411 606.273376 651.809631 604.014771 648.640747 601.894104 z" stroke-linecap="round" />
</g>
		<g transform="matrix(1 0 0 1 60.57 70.18)"  >
<path style="stroke: none; stroke-width: 1; stroke-dasharray: none; stroke-linecap: butt; stroke-dashoffset: 0; stroke-linejoin: miter; stroke-miterlimit: 4; fill: rgb(0,0,0); fill-rule: nonzero; opacity: 1;" vector-effect="non-scaling-stroke"  transform=" translate(-565.49, -564.77)" d="M 570.615601 552.613647 C 571.729187 549.992004 573.305664 549.366272 575.593079 550.446594 C 576.480164 552.39447 575.372559 554.041077 574.642822 555.59436 C 571.466736 562.35498 569.154053 569.519714 565.266785 575.941528 C 563.52655 578.816345 561.303345 580.786743 557.702209 578.80658 C 557.739258 578.176331 557.62738 577.683472 557.796143 577.552795 C 564.987915 571.982666 562.272766 566.02179 558.819458 559.740417 C 557.278809 556.938171 555.280457 554.148499 555.052002 549.989685 C 563.956726 550.188171 561.440735 559.57428 566.351257 562.860901 C 567.713196 559.597839 569.094238 556.289124 570.615601 552.613647 z" stroke-linecap="round" />
</g>
		<g transform="matrix(1 0 0 1 229.53 65.92)"  >
<path style="stroke: none; stroke-width: 1; stroke-dasharray: none; stroke-linecap: butt; stroke-dashoffset: 0; stroke-linejoin: miter; stroke-miterlimit: 4; fill: rgb(0,0,0); fill-rule: nonzero; opacity: 1;" vector-effect="non-scaling-stroke"  transform=" translate(-734.44, -560.52)" d="M 726.687988 550.845703 C 729.235107 550.945862 731.248291 550.939758 733.423157 550.228088 C 738.089478 548.701172 742.419556 551.476257 743.612671 556.32489 C 744.625977 560.442139 743.898865 564.620667 743.935669 568.770935 C 743.949585 570.348633 743.057678 571.216919 741.435852 571.228577 C 739.490479 571.242554 738.839905 570.065369 738.821106 568.339355 C 738.788513 565.340454 738.775635 562.341431 738.741333 559.342529 C 738.711426 556.725769 737.822998 554.620117 734.87738 554.493042 C 731.8302 554.361511 730.29895 556.189758 730.169617 559.130188 C 730.045349 561.958435 730.105957 564.794312 730.026855 567.625244 C 729.979126 569.33252 729.860962 571.120361 727.530151 571.206787 C 725.220947 571.292419 724.685059 569.669495 724.886169 567.868774 C 725.515808 562.232422 723.252441 556.35675 726.687988 550.845703 z" stroke-linecap="round" />
</g>
		<g transform="matrix(1 0 0 1 104.53 65.73)"  >
<path style="stroke: none; stroke-width: 1; stroke-dasharray: none; stroke-linecap: butt; stroke-dashoffset: 0; stroke-linejoin: miter; stroke-miterlimit: 4; fill: rgb(0,0,0); fill-rule: nonzero; opacity: 1;" vector-effect="non-scaling-stroke"  transform=" translate(-609.45, -560.33)" d="M 618.430298 565.824585 C 618.015686 567.926941 619.72998 570.790283 616.51532 570.963684 C 613.184326 571.143372 613.867676 568.235291 613.77655 566.201965 C 613.657532 563.545349 613.770569 560.878113 613.641541 558.22229 C 613.529785 555.921082 612.295532 554.500305 609.8927 554.39801 C 607.389587 554.291382 605.563232 555.407776 605.31427 557.961975 C 605.00885 561.096497 605.111877 564.269897 605.013733 567.425781 C 604.960632 569.130432 604.906921 570.966736 602.571594 571.021729 C 600.284363 571.075623 599.963623 569.384644 599.960327 567.595581 C 599.951843 562.939087 599.993042 558.282471 599.95929 553.626221 C 599.939514 550.891785 600.952759 549.499329 603.900391 550.204102 C 604.688965 550.392639 605.615051 550.676575 606.320251 550.442139 C 616.397156 547.092834 620.090759 554.7146 618.627869 562.93512 C 618.483032 563.748779 618.49231 564.589905 618.430298 565.824585 z" stroke-linecap="round" />
</g>
		<g transform="matrix(1 0 0 1 8.66 112.92)"  >
<path style="stroke: none; stroke-width: 1; stroke-dasharray: none; stroke-linecap: butt; stroke-dashoffset: 0; stroke-linejoin: miter; stroke-miterlimit: 4; fill: rgb(0,0,0); fill-rule: nonzero; opacity: 1;" vector-effect="non-scaling-stroke"  transform=" translate(-513.57, -607.52)" d="M 520.500488 615.631592 C 514.703918 618.733337 509.884064 618.688721 506.410248 615.39624 C 503.334991 612.481506 501.899963 608.882141 503.322662 604.592773 C 504.849548 599.98938 508.204285 597.505615 512.894531 597.168945 C 517.331787 596.850403 520.987061 598.485779 523.112549 602.717651 C 525.530518 607.53186 524.383667 611.669556 520.500488 615.631592 M 516.789368 602.736572 C 515.043396 601.459534 513.245117 601.065063 511.211945 602.156189 C 508.012878 603.872803 506.733276 607.692566 508.666016 610.600281 C 510.539978 613.419556 513.110413 614.623718 516.348877 612.784424 C 520.096619 610.655823 520.391357 607.479431 516.789368 602.736572 z" stroke-linecap="round" />
</g>
		<g transform="matrix(1 0 0 1 163.73 112.75)"  >
<path style="stroke: none; stroke-width: 1; stroke-dasharray: none; stroke-linecap: butt; stroke-dashoffset: 0; stroke-linejoin: miter; stroke-miterlimit: 4; fill: rgb(0,0,0); fill-rule: nonzero; opacity: 1;" vector-effect="non-scaling-stroke"  transform=" translate(-668.65, -607.35)" d="M 659.190125 600.470825 C 659.422974 598.190002 660.041016 596.71405 662.292053 597.083069 C 664.28125 597.409058 664.273254 599.031616 664.296753 600.547546 C 664.340393 603.368958 664.267761 606.194885 664.402039 609.011353 C 664.532227 611.739929 666.151855 613.43103 668.822388 613.418091 C 671.334961 613.405945 672.681885 611.609436 672.827454 609.167297 C 673.004822 606.188782 672.973083 603.197998 673.046448 600.212891 C 673.092957 598.320374 673.74469 596.891724 675.957581 597.095947 C 677.871643 597.272522 678.277893 598.670654 678.247498 600.32019 C 678.161865 604.966858 678.1073 609.614258 677.993652 614.260254 C 677.960205 615.625671 677.659485 617.409668 676.009888 617.131165 C 672.651367 616.563965 669.488586 617.969116 666.182556 617.607971 C 662.560486 617.212158 660.523804 615.238403 659.625122 611.815552 C 658.677368 608.205994 659.17511 604.550903 659.190125 600.470825 z" stroke-linecap="round" />
</g>
		<g transform="matrix(1 0 0 1 207.33 66.38)"  >
<path style="stroke: none; stroke-width: 1; stroke-dasharray: none; stroke-linecap: butt; stroke-dashoffset: 0; stroke-linejoin: miter; stroke-miterlimit: 4; fill: rgb(0,0,0); fill-rule: nonzero; opacity: 1;" vector-effect="non-scaling-stroke"  transform=" translate(-712.25, -560.98)" d="M 716.479309 563.925049 C 716.658325 560.209534 716.753479 556.882202 716.801208 553.554138 C 716.826172 551.810669 717.418579 550.698792 719.380798 550.657776 C 721.350464 550.616577 722.032532 551.687561 722.041565 553.451782 C 722.067078 558.446716 722.076355 563.441711 722.120605 568.436462 C 722.1427 570.922974 720.810913 571.62262 718.576416 571.279236 C 717.449341 571.105957 716.268433 570.742126 715.18573 570.918457 C 711.179199 571.570679 706.988464 572.547913 704.342163 568.385925 C 701.052368 563.211731 702.841553 557.389771 703.006897 551.827393 C 703.04895 550.411011 704.644287 550.367493 705.823486 550.51825 C 707.338196 550.711914 707.481506 551.85321 707.47406 553.116638 C 707.456421 556.109863 707.281555 559.126526 707.594604 562.088928 C 707.820435 564.226562 708.648132 566.435852 711.12616 567.078247 C 713.609558 567.721985 715.239136 566.403015 716.479309 563.925049 z" stroke-linecap="round" />
</g>
		<g transform="matrix(1 0 0 1 338.38 66.38)"  >
<path style="stroke: none; stroke-width: 1; stroke-dasharray: none; stroke-linecap: butt; stroke-dashoffset: 0; stroke-linejoin: miter; stroke-miterlimit: 4; fill: rgb(0,0,0); fill-rule: nonzero; opacity: 1;" vector-effect="non-scaling-stroke"  transform=" translate(-843.29, -560.98)" d="M 849.109741 570.315552 C 844.169128 572.355835 839.690002 572.874878 836.11853 568.570374 C 835.151123 567.404419 833.857178 565.579834 835.745911 564.229248 C 837.133484 563.237 838.427124 564.098206 839.495728 565.49353 C 841.805725 568.509888 844.37677 568.354614 847.166077 565.720703 C 846.133545 562.879028 843.62738 562.813049 841.480835 562.429016 C 837.670654 561.747192 835.329041 559.852783 835.69928 555.769287 C 836.079468 551.576172 839.399414 550.312378 842.775208 550.140747 C 846.347961 549.959106 849.735168 551.112976 851.1828 555.006348 C 851.528625 555.936523 851.594116 557.059814 850.394287 557.553894 C 848.958923 558.14502 847.84082 557.506958 846.888672 556.424866 C 844.968262 554.242432 843.013428 553.456238 840.852905 556.164612 C 841.823669 558.411072 843.703979 558.360474 845.468384 558.700684 C 852.206055 559.999817 853.801453 564.639709 849.109741 570.315552 z" stroke-linecap="round" />
</g>
		<g transform="matrix(1 0 0 1 280.59 113.38)"  >
<path style="stroke: none; stroke-width: 1; stroke-dasharray: none; stroke-linecap: butt; stroke-dashoffset: 0; stroke-linejoin: miter; stroke-miterlimit: 4; fill: rgb(0,0,0); fill-rule: nonzero; opacity: 1;" vector-effect="non-scaling-stroke"  transform=" translate(-785.5, -607.98)" d="M 791.591858 607.238647 C 794.192017 609.848022 794.520874 612.584717 792.594849 615.154358 C 790.246521 618.287537 786.710144 618.810913 783.108032 618.125732 C 779.736267 617.484436 777.459351 615.545349 777.178345 611.650146 C 781.172302 608.816284 785.17334 619.497131 789.01355 611.592529 C 787.207397 609.605469 784.753174 609.76593 782.572327 609.157288 C 779.333374 608.253296 777.245056 606.299194 777.729736 602.660645 C 778.180237 599.278931 780.658508 597.951904 783.694153 597.69635 C 786.68396 597.44458 789.792908 597.295898 791.901917 600.124329 C 792.788574 601.313416 793.946899 602.736694 792.60321 604.117004 C 791.303162 605.452393 789.791931 604.773499 788.709351 603.520569 C 786.802368 601.313477 784.932739 600.575928 782.509583 603.15625 C 785.008057 606.132812 788.776062 605.131531 791.591858 607.238647 z" stroke-linecap="round" />
</g>
		<g transform="matrix(1 0 0 1 265.3 110.41)"  >
<path style="stroke: none; stroke-width: 1; stroke-dasharray: none; stroke-linecap: butt; stroke-dashoffset: 0; stroke-linejoin: miter; stroke-miterlimit: 4; fill: rgb(0,0,0); fill-rule: nonzero; opacity: 1;" vector-effect="non-scaling-stroke"  transform=" translate(-770.21, -605.01)" d="M 765.702026 596.867004 C 767.218262 596.153564 767.424622 595.019165 767.623047 593.847351 C 767.877808 592.342651 769.288879 591.701782 770.188599 592.340698 C 772.801758 594.19635 773.531677 597.956726 776.900269 599.260315 C 777.233826 599.389465 776.605469 600.933167 775.712952 601.071472 C 771.542908 601.717163 772.362976 604.901428 772.294434 607.618408 C 772.231628 610.10791 772.275696 612.600098 772.223938 615.090027 C 772.188293 616.802002 771.500549 618.00293 769.554993 617.913452 C 767.785339 617.832092 767.509583 616.645569 767.481384 615.152344 C 767.421936 612.002869 767.201904 608.856384 767.145508 605.706909 C 767.110291 603.738464 767.465271 602.066589 764.819275 600.964905 C 762.607117 600.043762 763.130981 598.047852 765.702026 596.867004 z" stroke-linecap="round" />
</g>
		<g transform="matrix(1 0 0 1 101.98 109.78)"  >
<path style="stroke: none; stroke-width: 1; stroke-dasharray: none; stroke-linecap: butt; stroke-dashoffset: 0; stroke-linejoin: miter; stroke-miterlimit: 4; fill: rgb(0,0,0); fill-rule: nonzero; opacity: 1;" vector-effect="non-scaling-stroke"  transform=" translate(-606.89, -604.38)" d="M 613.781982 598.947693 C 608.382019 602.148376 609.037659 607.162292 609.022339 612.050293 C 609.016357 613.947449 610.019165 617.048889 606.700867 617.105713 C 603.010803 617.168823 604.723999 614.069763 604.618652 612.211426 C 604.487244 609.893616 604.624878 607.56134 604.612366 605.235596 C 604.604248 603.725464 604.601013 602.201111 602.847168 601.480957 C 598.663818 599.763062 599.453308 598.142395 602.85437 596.334351 C 603.608032 595.933716 604.012695 594.795715 604.474548 593.941223 C 606.173157 590.798401 608.317566 590.925232 609.00531 594.140442 C 609.65802 597.192261 613.362427 595.927673 613.781982 598.947693 z" stroke-linecap="round" />
</g>
		<g transform="matrix(1 0 0 1 181.41 110.13)"  >
<path style="stroke: none; stroke-width: 1; stroke-dasharray: none; stroke-linecap: butt; stroke-dashoffset: 0; stroke-linejoin: miter; stroke-miterlimit: 4; fill: rgb(0,0,0); fill-rule: nonzero; opacity: 1;" vector-effect="non-scaling-stroke"  transform=" translate(-686.32, -604.73)" d="M 681.253906 601.182373 C 679.195129 599.785461 678.972046 597.462341 680.784607 597.240723 C 684.162964 596.827759 682.809692 590.920288 686.593567 592.486389 C 688.843201 593.417419 689.082153 597.134338 692.269226 597.833679 C 693.407227 598.083374 693.332581 600.406982 692.226501 600.678101 C 686.596008 602.058105 688.584106 606.522766 688.192322 609.993408 C 688.00647 611.639709 688.142273 613.319763 688.056396 614.980652 C 687.972717 616.599976 687.06781 617.351196 685.434021 617.229797 C 683.859436 617.112793 683.637329 616.04541 683.640442 614.776672 C 683.648132 611.613586 683.659973 608.450378 683.631165 605.287537 C 683.616211 603.641541 683.850647 601.828369 681.253906 601.182373 z" stroke-linecap="round" />
</g>
		<g transform="matrix(1 0 0 1 40.21 110.05)"  >
<path style="stroke: none; stroke-width: 1; stroke-dasharray: none; stroke-linecap: butt; stroke-dashoffset: 0; stroke-linejoin: miter; stroke-miterlimit: 4; fill: rgb(0,0,0); fill-rule: nonzero; opacity: 1;" vector-effect="non-scaling-stroke"  transform=" translate(-545.12, -604.65)" d="M 546.350952 611.758301 C 546.205688 613.667175 546.241028 615.181335 545.846008 616.573364 C 545.610291 617.403992 544.492676 617.328857 543.655151 617.236267 C 542.181824 617.073303 541.784302 616.0401 541.760315 614.782715 C 541.706482 611.968933 541.70874 609.154175 541.655701 606.340393 C 541.633972 605.186707 541.978577 603.399048 541.389954 602.981995 C 536.512268 599.526733 540.926941 596.690186 541.825134 593.642883 C 541.916565 593.332642 542.035583 592.979309 542.257629 592.767456 C 543.352051 591.723206 545.76239 591.917053 545.617371 592.445068 C 544.356445 597.034363 554.188477 597.595886 550.108521 600.291809 C 544.877319 603.748474 547.128601 607.571899 546.350952 611.758301 z" stroke-linecap="round" />
</g>
		<g transform="matrix(1 0 0 1 -33.5 65.5)"  >
<path style="stroke: none; stroke-width: 1; stroke-dasharray: none; stroke-linecap: butt; stroke-dashoffset: 0; stroke-linejoin: miter; stroke-miterlimit: 4; fill: rgb(0,0,0); fill-rule: nonzero; opacity: 1;" vector-effect="non-scaling-stroke"  transform=" translate(-471.41, -560.1)" d="M 472.680847 550.218872 C 476.625824 548.771545 477.9841 550.047546 477.094391 554.06958 C 470.766693 554.484497 470.258911 558.882751 470.222809 563.968628 C 470.20639 566.277771 471.935425 570.470398 468.22113 570.552734 C 463.967316 570.647034 465.983246 566.268555 465.717651 563.823975 C 465.377747 560.695923 465.621155 557.503784 465.624207 554.339294 C 465.627533 550.887939 466.309906 548.426208 470.567444 550.778625 C 470.983521 551.008484 471.785736 550.53949 472.680847 550.218872 z" stroke-linecap="round" />
</g>
		<g transform="matrix(1 0 0 1 27.33 112.42)"  >
<path style="stroke: none; stroke-width: 1; stroke-dasharray: none; stroke-linecap: butt; stroke-dashoffset: 0; stroke-linejoin: miter; stroke-miterlimit: 4; fill: rgb(0,0,0); fill-rule: nonzero; opacity: 1;" vector-effect="non-scaling-stroke"  transform=" translate(-532.24, -607.02)" d="M 531.373169 606.817505 C 531.312683 609.718506 531.289429 612.210449 531.240845 614.701965 C 531.21106 616.224792 530.614502 617.230408 528.899109 617.262268 C 527.13501 617.294983 526.614441 616.301208 526.618774 614.74054 C 526.632507 609.765808 526.646973 604.790955 526.608337 599.816467 C 526.591248 597.624573 527.742554 596.506348 529.698059 597.195801 C 531.58313 597.860474 533.131958 597.80603 534.90332 597.023071 C 536.029297 596.525391 537.289856 596.754639 537.689636 598.226562 C 538.066223 599.613159 537.982788 600.968811 536.256165 601.391724 C 533.555603 602.053223 531.87854 603.632141 531.373169 606.817505 z" stroke-linecap="round" />
</g>
		<g transform="matrix(1 0 0 1 202.14 108.63)"  >
<path style="stroke: none; stroke-width: 1; stroke-dasharray: none; stroke-linecap: butt; stroke-dashoffset: 0; stroke-linejoin: miter; stroke-miterlimit: 4; fill: rgb(0,0,0); fill-rule: nonzero; opacity: 1;" vector-effect="non-scaling-stroke"  transform=" translate(-707.05, -603.23)" d="M 709.344543 598.201721 C 709.335632 603.805481 709.349792 608.935181 709.306091 614.064453 C 709.291992 615.710205 709.413147 617.615234 706.947388 617.585388 C 704.853882 617.559998 704.737122 615.954041 704.73468 614.411682 C 704.722839 606.965698 704.728394 599.519775 704.746094 592.073792 C 704.750427 590.264771 705.123474 588.677917 707.475525 588.897949 C 709.674866 589.103577 709.348755 590.813416 709.363831 592.267151 C 709.38269 594.086975 709.353516 595.90741 709.344543 598.201721 z" stroke-linecap="round" />
</g>
		<g transform="matrix(1 0 0 1 292.49 65.92)"  >
<path style="stroke: none; stroke-width: 1; stroke-dasharray: none; stroke-linecap: butt; stroke-dashoffset: 0; stroke-linejoin: miter; stroke-miterlimit: 4; fill: rgb(0,0,0); fill-rule: nonzero; opacity: 1;" vector-effect="non-scaling-stroke"  transform=" translate(-797.4, -560.52)" d="M 794.401855 550.767883 C 797.432312 552.272766 799.877014 549.466492 802.539307 550.425171 C 803.481628 552.213684 803.99353 554.286682 801.615417 554.892212 C 796.441772 556.209595 796.348389 559.917236 796.215454 564.118164 C 796.139221 566.527344 797.913635 570.842529 793.834656 570.814575 C 790.151489 570.789368 791.936218 566.636414 791.727356 564.300842 C 791.433777 561.017456 791.634338 557.68689 791.681458 554.377319 C 791.704773 552.736694 791.556274 550.904968 794.401855 550.767883 z" stroke-linecap="round" />
</g>
		<g transform="matrix(1 0 0 1 253.71 113.1)"  >
<path style="stroke: none; stroke-width: 1; stroke-dasharray: none; stroke-linecap: butt; stroke-dashoffset: 0; stroke-linejoin: miter; stroke-miterlimit: 4; fill: rgb(0,0,0); fill-rule: nonzero; opacity: 1;" vector-effect="non-scaling-stroke"  transform=" translate(-758.62, -607.7)" d="M 761.122803 613.695496 C 761.049683 616.039307 761.055969 618.085083 758.346069 617.87915 C 756.052429 617.704834 756.013977 615.801453 756.004639 614.135925 C 755.979736 609.642883 756.042358 605.149109 756.094116 600.655884 C 756.115906 598.76886 756.722168 597.345337 758.984314 597.520935 C 761.020996 597.678955 761.247437 599.171936 761.239746 600.753601 C 761.219666 604.914307 761.165771 609.074768 761.122803 613.695496 z" stroke-linecap="round" />
</g>
		<g transform="matrix(1 0 0 1 90.95 112.41)"  >
<path style="stroke: none; stroke-width: 1; stroke-dasharray: none; stroke-linecap: butt; stroke-dashoffset: 0; stroke-linejoin: miter; stroke-miterlimit: 4; fill: rgb(0,0,0); fill-rule: nonzero; opacity: 1;" vector-effect="non-scaling-stroke"  transform=" translate(-595.87, -607.01)" d="M 593.318909 599.222168 C 593.774231 596.897461 595.148254 596.555481 596.774902 596.933044 C 598.485718 597.3302 598.42926 598.77948 598.40625 600.13501 C 598.327026 604.797119 598.256653 609.459412 598.151245 614.120972 C 598.115356 615.707703 597.829163 617.182617 595.760132 617.221924 C 593.485657 617.265137 593.642761 615.630493 593.613037 614.102173 C 593.519287 609.277649 593.407471 604.453491 593.318909 599.222168 z" stroke-linecap="round" />
</g>
		<g transform="matrix(1 0 0 1 302.21 66.47)"  >
<path style="stroke: none; stroke-width: 1; stroke-dasharray: none; stroke-linecap: butt; stroke-dashoffset: 0; stroke-linejoin: miter; stroke-miterlimit: 4; fill: rgb(0,0,0); fill-rule: nonzero; opacity: 1;" vector-effect="non-scaling-stroke"  transform=" translate(-807.13, -561.07)" d="M 804.706848 557.128723 C 805.140076 554.14386 803.349731 550.03717 809.543579 551.092957 C 809.543579 556.970459 809.543518 562.882629 809.543518 568.794739 C 809.543518 570.406921 808.800476 571.291016 807.125366 571.220825 C 805.441895 571.15033 804.830017 570.07959 804.807251 568.577209 C 804.752014 564.920715 804.737549 561.263672 804.706848 557.128723 z" stroke-linecap="round" />
</g>
		<g transform="matrix(1 0 0 1 211.17 112.83)"  >
<path style="stroke: none; stroke-width: 1; stroke-dasharray: none; stroke-linecap: butt; stroke-dashoffset: 0; stroke-linejoin: miter; stroke-miterlimit: 4; fill: rgb(0,0,0); fill-rule: nonzero; opacity: 1;" vector-effect="non-scaling-stroke"  transform=" translate(-716.09, -607.43)" d="M 714.366638 597.964111 C 717.10791 596.50354 718.495911 597.089233 718.46521 599.999573 C 718.414368 604.815002 718.396118 609.630981 718.306335 614.445618 C 718.279053 615.906555 718.418762 617.674072 716.201294 617.672119 C 713.852295 617.670044 713.679504 615.907654 713.710815 614.174805 C 713.806641 608.873779 713.956299 603.57373 714.366638 597.964111 z" stroke-linecap="round" />
</g>
		<g transform="matrix(1 0 0 1 353.65 76.78)"  >
<path style="stroke: none; stroke-width: 1; stroke-dasharray: none; stroke-linecap: butt; stroke-dashoffset: 0; stroke-linejoin: miter; stroke-miterlimit: 4; fill: rgb(0,0,0); fill-rule: nonzero; opacity: 1;" vector-effect="non-scaling-stroke"  transform=" translate(-858.57, -571.38)" d="M 855.8396 567.227783 C 857.322754 565.42804 858.919373 565.291199 860.338013 566.502625 C 861.776001 567.730591 861.657715 569.571411 860.850891 571.042358 C 859.669189 573.196899 858.811523 575.779846 855.688416 577.047485 C 855.688416 573.498108 855.688416 570.532166 855.8396 567.227783 z" stroke-linecap="round" />
</g>
		<g transform="matrix(1 0 0 1 353.14 59.7)"  >
<path style="stroke: none; stroke-width: 1; stroke-dasharray: none; stroke-linecap: butt; stroke-dashoffset: 0; stroke-linejoin: miter; stroke-miterlimit: 4; fill: rgb(0,0,0); fill-rule: nonzero; opacity: 1;" vector-effect="non-scaling-stroke"  transform=" translate(-858.06, -554.3)" d="M 854.870483 554.748474 C 855.214172 552.094421 856.407349 550.666809 858.842773 551.050537 C 860.257324 551.273499 861.086304 552.356506 861.217834 553.852478 C 861.363037 555.504028 860.858704 556.848572 859.192383 557.397095 C 857.055481 558.100586 855.723083 557.068787 854.870483 554.748474 z" stroke-linecap="round" />
</g>
		<g transform="matrix(1 0 0 1 211.4 96.66)"  >
<path style="stroke: none; stroke-width: 1; stroke-dasharray: none; stroke-linecap: butt; stroke-dashoffset: 0; stroke-linejoin: miter; stroke-miterlimit: 4; fill: rgb(0,0,0); fill-rule: nonzero; opacity: 1;" vector-effect="non-scaling-stroke"  transform=" translate(-716.31, -591.26)" d="M 714.253296 589.092529 C 716.160645 587.653137 717.6604 587.863464 718.739807 589.534729 C 719.653625 590.949585 719.325073 592.37323 718.132507 593.550598 C 717.205139 594.466248 716.095337 594.654968 714.987732 593.978271 C 713.080994 592.813293 712.847046 591.21405 714.253296 589.092529 z" stroke-linecap="round" />
</g>
		<g transform="matrix(1 0 0 1 253.86 96.7)"  >
<path style="stroke: none; stroke-width: 1; stroke-dasharray: none; stroke-linecap: butt; stroke-dashoffset: 0; stroke-linejoin: miter; stroke-miterlimit: 4; fill: rgb(0,0,0); fill-rule: nonzero; opacity: 1;" vector-effect="non-scaling-stroke"  transform=" translate(-758.78, -591.3)" d="M 755.918335 592.658875 C 755.458313 589.684998 756.500488 587.85614 759.269836 588.307434 C 761.271545 588.633606 762.423096 590.426758 761.301819 592.486694 C 759.94635 594.976624 758.01947 594.949524 755.918335 592.658875 z" stroke-linecap="round" />
</g>
		<g transform="matrix(1 0 0 1 91.02 96.21)"  >
<path style="stroke: none; stroke-width: 1; stroke-dasharray: none; stroke-linecap: butt; stroke-dashoffset: 0; stroke-linejoin: miter; stroke-miterlimit: 4; fill: rgb(0,0,0); fill-rule: nonzero; opacity: 1;" vector-effect="non-scaling-stroke"  transform=" translate(-595.93, -590.81)" d="M 596.604736 593.716797 C 594.004089 593.871094 592.809753 592.704285 592.956848 590.522278 C 593.036621 589.338318 593.95813 588.454773 595.139343 588.058472 C 596.659241 587.548584 597.721375 588.319214 598.452637 589.521912 C 599.612732 591.429932 598.438538 592.581116 596.604736 593.716797 z" stroke-linecap="round" />
</g>
		<g transform="matrix(1 0 0 1 302.4 49.42)"  >
<path style="stroke: none; stroke-width: 1; stroke-dasharray: none; stroke-linecap: butt; stroke-dashoffset: 0; stroke-linejoin: miter; stroke-miterlimit: 4; fill: rgb(0,0,0); fill-rule: nonzero; opacity: 1;" vector-effect="non-scaling-stroke"  transform=" translate(-807.31, -544.02)" d="M 804.350464 543.992676 C 804.922913 541.534607 806.203979 540.429565 808.392822 541.077087 C 809.575317 541.42688 810.230713 542.423645 810.269653 543.743042 C 810.313416 545.228149 809.738892 546.45874 808.363159 546.932007 C 806.098083 547.711304 804.982056 546.340088 804.350464 543.992676 z" stroke-linecap="round" />
</g>
</g>
</g>
</svg>